<?xml version="1.0" encoding="iso-8859-1"?>
<!-- Generator: Adobe Illustrator 19.0.0, SVG Export Plug-In . SVG Version: 6.00 Build 0)  -->
<svg version="1.1" id="Capa_1" xmlns="http://www.w3.org/2000/svg" xmlns:xlink="http://www.w3.org/1999/xlink" x="0px" y="0px"
	 viewBox="0 0 320.001 320.001" style="enable-background:new 0 0 320.001 320.001;" xml:space="preserve">
<g id="XMLID_1033_">
	<polygon id="XMLID_1034_" style="fill:#EA348B;" points="320,140.001 280,107.501 280,162.501 	"/>
	<rect id="XMLID_1035_" x="0.001" y="140.001" style="fill:#EA348B;" width="0" height="0.001"/>
	<polygon id="XMLID_1036_" style="fill:#EA348B;" points="40,162.501 40,107.501 0.002,140 0.002,140.001 	"/>
	<path id="XMLID_1037_" style="fill:#CCF8F3;" d="M160.001,230.002L160.001,230.002v-90.001h-90v-40h90V0H40v107.501v55
		L160.001,230.002z M70.001,0.001h60v60l-30-30l-30,30V0.001z"/>
	<polygon id="XMLID_1040_" style="fill:#00D7DF;" points="160.001,100.001 250.001,100.001 250.001,140.001 160.001,140.001 
		160.001,230.001 160.001,230.001 280,162.501 280,107.501 280,0 160.001,0 	"/>
	<polygon id="XMLID_1041_" style="fill:#FFFFFF;" points="250.001,100.001 160.001,100.001 70.001,100.001 70.001,140.001 
		160.001,140.001 250.001,140.001 	"/>
	<polygon id="XMLID_1042_" style="fill:#F285B9;" points="160.001,230.002 40,162.501 0.002,140.001 0.002,140.001 0.002,320.001 	
		"/>
	<polygon id="XMLID_1043_" style="fill:#B02768;" points="320,140.001 280,162.501 160.001,230.001 320,320.001 320,140 	"/>
	<polygon id="XMLID_1044_" style="fill:#FFFFFF;" points="0.002,140 0.002,140 0.001,140 0.001,140.001 0.002,140.001 	"/>
	<polygon id="XMLID_1045_" style="fill:#EA348B;" points="160.001,230.001 160.001,230.001 160.001,230.002 0.002,320.001 
		0.001,320.001 0.002,320.001 320,320.001 	"/>
	<polygon id="XMLID_1046_" style="fill:#EA348B;" points="130.001,60.001 130.001,0.001 70.001,0.001 70.001,60.001 100.001,30.001 
			"/>
</g>
<g>
</g>
<g>
</g>
<g>
</g>
<g>
</g>
<g>
</g>
<g>
</g>
<g>
</g>
<g>
</g>
<g>
</g>
<g>
</g>
<g>
</g>
<g>
</g>
<g>
</g>
<g>
</g>
<g>
</g>
</svg>
