<svg id="Layer_1" enable-background="new 0 0 510 510" height="512" viewBox="0 0 510 510" width="512" xmlns="http://www.w3.org/2000/svg"><g><g id="XMLID_318_"><path id="XMLID_1321_" d="m465 446v34h15l15-15-15-15-7.8-15z" fill="#e4e4ff"/><path id="XMLID_1318_" d="m450 60v45l15 15 15-15 15-37.5-15-37.5c-16.6 0-30 13.4-30 30z" fill="#8e89fa"/><path id="XMLID_1315_" d="m450 270 15 15 30-30c-10.5-10.5-19.5-19.5-30-30l-15 15z" fill="#afd1fd"/><path id="XMLID_1314_" d="m450 240h30l15-67.5-15-67.5c-10.5 0-19.5 0-30 0z" fill="#4d4d8c"/><path id="XMLID_1311_" d="m450 330 15 15 30-30c-10.5-10.5-19.5-19.5-30-30l-15 15z" fill="#afd1fd"/><path id="XMLID_1308_" d="m195 510c-10.8 0-184.2 0-195 0 0-14.4 0-495.6 0-510h195l15 255z" fill="#fff5f5"/><path id="XMLID_1_" d="m195 0h195v510c-10.8 0-184.2 0-195 0z" fill="#e4e4ff"/><g id="XMLID_1300_"><g><path id="XMLID_25_" d="m283.8 448.6c-5.8-12-10.8-22.4-16.5-34.4-9.6 8.4-17.9 15.6-27.5 24-3.5-3.5-6.4-6.4-9.9-9.9-4.8-4.8-11.5-7.2-18.3-6.5-1.1-10.4-2-19.4-3.1-29.8 10.9-1.1 21.8 1.1 31.3 6.4 11.9-10.4 25.6-22.3 37.6-32.8 5.3 11.1 9.9 20.6 15.3 31.8 5.9-5.9 11-11 16.9-16.9l21.2 21.2c-12.9 12.8-39.5 39.4-47 46.9z" fill="#716dd4"/></g></g><g id="XMLID_1295_"><path id="XMLID_1299_" d="m195 105c-14.5 0-105.4 0-120 0 0-10.5 0-19.5 0-30h120l15 15z" fill="#ff8659"/></g><g id="XMLID_1290_"><path id="XMLID_1294_" d="m195 165c-14.5 0-105.4 0-120 0 0-10.5 0-19.5 0-30h120l15 15z" fill="#afd1fd"/></g><g id="XMLID_1285_"><path id="XMLID_1289_" d="m195 225c-14.5 0-105.4 0-120 0 0-10.5 0-19.5 0-30h120l15 15z" fill="#afd1fd"/></g><g id="XMLID_1280_"><path id="XMLID_1284_" d="m195 285c-14.5 0-105.4 0-120 0 0-10.5 0-19.5 0-30h120l15 15z" fill="#afd1fd"/></g><g id="XMLID_1275_"><path id="XMLID_1279_" d="m315 105c-14.5 0-105.4 0-120 0 0-10.5 0-19.5 0-30h120z" fill="#ff5c5c"/></g><g id="XMLID_1270_"><path id="XMLID_1274_" d="m315 165c-14.5 0-105.4 0-120 0 0-10.5 0-19.5 0-30h120z" fill="#6dabfc"/></g><g id="XMLID_1265_"><path id="XMLID_1269_" d="m315 225c-14.5 0-105.4 0-120 0 0-10.5 0-19.5 0-30h120z" fill="#6dabfc"/></g><g id="XMLID_1260_"><path id="XMLID_1264_" d="m315 285c-14.5 0-105.4 0-120 0 0-10.5 0-19.5 0-30h120z" fill="#6dabfc"/></g><g id="XMLID_1255_"><path id="XMLID_1259_" d="m195 345c-14.5 0-105.4 0-120 0 0-10.5 0-19.5 0-30h120z" fill="#ff8659"/></g><path id="XMLID_1252_" d="m480 30v75l15 15 15-15c0-15 0-30 0-45 0-16.6-13.4-30-30-30z" fill="#716dd4"/><path id="XMLID_1249_" d="m480 480h15c0-11.9 0-22.1 0-34l-7.2-11-7.8 15z" fill="#d0cef1"/><path id="XMLID_1248_" d="m450 300h30l15-15-15-15c-10.5 0-19.5 0-30 0z" fill="#4d4d8c"/><path id="XMLID_1247_" d="m450 420c0 16.6 13.5 30 30 30l15-60-15-60c-10.5 0-19.5 0-30 0z" fill="#4d4d8c"/><path id="XMLID_1207_" d="m480 330 15 15 15-15c0-10.5 0-19.5 0-30l-15-15-15 15z" fill="#6dabfc"/><path id="XMLID_1195_" d="m480 270 15 15 15-15c0-10.5 0-19.5 0-30l-15-15-15 15z" fill="#6dabfc"/><g fill="#283366"><path id="XMLID_1163_" d="m480 450c16.4 0 30-13.3 30-30 0-10.9 0-79 0-90-10.5 0-19.5 0-30 0z"/><path id="XMLID_327_" d="m480 240h30c0-16.3 0-118.6 0-135-10.5 0-19.5 0-30 0z"/></g></g><path id="XMLID_2_" d="m510 270c-10.5 0-19.5 0-30 0v30h30c0-10.5 0-19.5 0-30z" fill="#283366"/></g></svg>