<svg id="Layer_1" enable-background="new 0 0 510 510" height="512" viewBox="0 0 510 510" width="512" xmlns="http://www.w3.org/2000/svg"><g id="XMLID_1684_"><path id="XMLID_2282_" d="m0 105v75c14.398 1.814 104.508 13.173 119 15 16.442-1.814 119.449-13.175 136-15 5.241-13.102 9.759-24.398 15-37.5-5.241-13.102-9.759-24.398-15-37.5-15.73 0-59.273 0-75 0-10.744 0-30.249 15-30.249 15s-18.953-15-30.251-15c-26.057 0-93.449 0-119.5 0z" fill="#b0866b"/><path id="XMLID_2280_" d="m255 105v75c39.07 4.597 88.283 10.386 127.5 15 56.021-6.591 68.551-8.064 127.5-15 0-15.536 0-59.461 0-75-36.015 0-83.395 0-120 0-10.622 0-30 15-30 15s-19.37-15-30-15c-10.701 0-64.281 0-75 0z" fill="#9d6b5d"/><path id="XMLID_1879_" d="m150 30v75l15 15 15-15c0-25.342 0-19.486 0-45h75l15-15-15-15s-68.14 0-105 0z" fill="#9d6b5d"/><path id="XMLID_2283_" d="m330 60v45l15 15 15-15c0-23.326 0-51.683 0-75-36.541 0-68.459 0-105 0v30z" fill="#895050"/><path id="XMLID_1685_" d="m0 192v288h255l15-90-15-90z" fill="#ff8659"/><path id="XMLID_2286_" d="m0 180v12c0 59.402 48.299 108 108 108h147l15-52.5-15-67.5s-197.983 0-255 0z" fill="#9d6b5d"/><path id="XMLID_2289_" d="m255 300v180h255c0-12.877 0-267.671 0-288 0 14.629-255 108-255 108z" fill="#ff5c5c"/><path id="XMLID_2290_" d="m255 180v120h147c59.402 0 108-48.3 108-108 0-4.197 0-7.803 0-12-60.077 0-197.983 0-255 0z" fill="#895050"/><path id="XMLID_2288_" d="m180 366.188-30 30-30-30v-261.188h60z" fill="#ffdc75"/><path id="XMLID_1676_" d="m330 366.188 30 30 30-30c0-7.368 0-253.82 0-261.188-7.259 0-52.693 0-60 0z" fill="#ffc649"/></g></svg>